<svg width="176" height="34" viewBox="0 0 176 34" fill="none" xmlns="http://www.w3.org/2000/svg">
<path d="M42.4514 7.72857C43.4552 7.72857 44.3619 7.86619 45.1714 8.14143C45.9971 8.41667 46.6933 8.81333 47.26 9.33143C47.8267 9.83333 48.2638 10.4486 48.5714 11.1771C48.879 11.9057 49.0329 12.7152 49.0329 13.6057C49.0329 14.4962 48.879 15.3057 48.5714 16.0343C48.2638 16.7467 47.8267 17.3619 47.26 17.88C46.6933 18.3819 46.0052 18.7705 45.1957 19.0457C44.3862 19.321 43.4714 19.4586 42.4514 19.4586H39.1243V24H35.9429V7.72857H42.4514ZM42.2329 16.5443C43.3014 16.5443 44.1433 16.2852 44.7586 15.7671C45.3738 15.249 45.6814 14.5529 45.6814 13.6786C45.6814 12.7881 45.3738 12.0919 44.7586 11.59C44.1433 11.0719 43.3014 10.8129 42.2329 10.8129H39.1243V16.5443H42.2329ZM50.5961 17.6614C50.5961 16.7224 50.7661 15.8562 51.1061 15.0629C51.4461 14.2533 51.9075 13.5571 52.4903 12.9743C53.0894 12.3752 53.7937 11.9138 54.6032 11.59C55.4127 11.25 56.287 11.08 57.2261 11.08C58.1651 11.08 59.0394 11.25 59.8489 11.59C60.6584 11.9138 61.3627 12.3752 61.9618 12.9743C62.5608 13.5571 63.0303 14.2533 63.3703 15.0629C63.7103 15.8562 63.8803 16.7224 63.8803 17.6614C63.8803 18.5843 63.7103 19.4505 63.3703 20.26C63.0303 21.0533 62.5608 21.7495 61.9618 22.3486C61.3627 22.9314 60.6584 23.3929 59.8489 23.7329C59.0394 24.0567 58.1651 24.2186 57.2261 24.2186C56.287 24.2186 55.4127 24.0567 54.6032 23.7329C53.7937 23.3929 53.0894 22.9314 52.4903 22.3486C51.8913 21.7495 51.4218 21.0533 51.0818 20.26C50.758 19.4505 50.5961 18.5843 50.5961 17.6614ZM53.8018 17.6614C53.8018 18.131 53.8827 18.5843 54.0446 19.0214C54.2065 19.4424 54.4332 19.8148 54.7246 20.1386C55.0323 20.4624 55.3965 20.7214 55.8175 20.9157C56.2546 21.11 56.7323 21.2071 57.2503 21.2071C57.7684 21.2071 58.238 21.11 58.6589 20.9157C59.0799 20.7214 59.4361 20.4624 59.7275 20.1386C60.0351 19.8148 60.2699 19.4424 60.4318 19.0214C60.5937 18.5843 60.6746 18.131 60.6746 17.6614C60.6746 17.1919 60.5937 16.7386 60.4318 16.3014C60.2699 15.8643 60.0351 15.4838 59.7275 15.16C59.4361 14.8362 59.0799 14.5771 58.6589 14.3829C58.238 14.1886 57.7684 14.0914 57.2503 14.0914C56.7323 14.0914 56.2546 14.1886 55.8175 14.3829C55.3965 14.5771 55.0323 14.8362 54.7246 15.16C54.4332 15.4838 54.2065 15.8643 54.0446 16.3014C53.8827 16.7386 53.8018 17.1919 53.8018 17.6614ZM65.904 14.9657C65.904 13.7352 66.3574 12.78 67.264 12.1C68.1707 11.42 69.4336 11.08 71.0526 11.08C72.704 11.08 73.9669 11.4281 74.8412 12.1243C75.7317 12.8205 76.1931 13.8 76.2255 15.0629H73.1169C73.1007 14.5933 72.9064 14.221 72.534 13.9457C72.1778 13.6543 71.6921 13.5086 71.0769 13.5086C70.3969 13.5086 69.8788 13.63 69.5226 13.8729C69.1664 14.0995 68.9883 14.4314 68.9883 14.8686C68.9883 15.3219 69.1745 15.6619 69.5469 15.8886C69.9193 16.099 70.3807 16.269 70.9312 16.3986C71.4978 16.5281 72.105 16.6576 72.7526 16.7871C73.4002 16.9005 73.9993 17.0867 74.5497 17.3457C75.1164 17.5886 75.5859 17.9448 75.9583 18.4143C76.3307 18.8676 76.5169 19.499 76.5169 20.3086C76.5169 21.5229 76.0636 22.4781 75.1569 23.1743C74.2664 23.8543 72.9388 24.1943 71.174 24.1943C69.3607 24.1943 67.9845 23.83 67.0455 23.1014C66.1064 22.3729 65.6369 21.3933 65.6369 20.1629H68.7455C68.8912 21.2314 69.7169 21.7657 71.2226 21.7657C72.6636 21.7657 73.384 21.3286 73.384 20.4543C73.384 20.0171 73.1978 19.6933 72.8255 19.4829C72.4531 19.2724 71.9916 19.1105 71.4412 18.9971C70.8907 18.8676 70.2916 18.7462 69.644 18.6329C68.9964 18.5195 68.3974 18.3333 67.8469 18.0743C67.2964 17.8152 66.835 17.451 66.4626 16.9814C66.0902 16.4957 65.904 15.8238 65.904 14.9657ZM83.4704 7.58286V11.3229H86.6275V13.8729H83.4704V19.6043C83.4704 20.3167 83.6323 20.7943 83.9561 21.0371C84.2799 21.28 84.7251 21.4014 85.2918 21.4014C85.5023 21.4014 85.7128 21.3933 85.9232 21.3771C86.1499 21.3448 86.3847 21.3124 86.6275 21.28V24.0729C85.8828 24.17 85.1947 24.2186 84.5632 24.2186C83.9156 24.2186 83.3328 24.1538 82.8147 24.0243C82.2966 23.8948 81.8594 23.6762 81.5032 23.3686C81.147 23.0448 80.8718 22.6319 80.6775 22.13C80.4994 21.6119 80.4104 20.9805 80.4104 20.2357V13.8729H78.249V11.3229H80.4104V7.58286H83.4704ZM88.2816 17.6614C88.2816 16.7224 88.4516 15.8562 88.7916 15.0629C89.1316 14.2533 89.593 13.5571 90.1759 12.9743C90.7749 12.3752 91.4792 11.9138 92.2888 11.59C93.0983 11.25 93.9726 11.08 94.9116 11.08C95.7373 11.08 96.5064 11.2095 97.2188 11.4686C97.9473 11.7114 98.5949 12.0595 99.1616 12.5129C99.7283 12.95 100.198 13.4843 100.57 14.1157C100.943 14.7471 101.185 15.4433 101.299 16.2043H98.0202C97.8097 15.5729 97.4373 15.0629 96.903 14.6743C96.3688 14.2695 95.713 14.0671 94.9359 14.0671C94.4178 14.0671 93.9402 14.1643 93.503 14.3586C93.0821 14.5529 92.7178 14.82 92.4102 15.16C92.1188 15.4838 91.884 15.8643 91.7059 16.3014C91.544 16.7224 91.463 17.1757 91.463 17.6614C91.463 18.131 91.544 18.5843 91.7059 19.0214C91.884 19.4424 92.1188 19.8229 92.4102 20.1629C92.7178 20.4867 93.0821 20.7457 93.503 20.94C93.9402 21.1343 94.4178 21.2314 94.9359 21.2314C95.6968 21.2314 96.3445 21.0371 96.8788 20.6486C97.4292 20.26 97.8097 19.7581 98.0202 19.1429H101.299C101.169 19.8876 100.918 20.5757 100.546 21.2071C100.174 21.8224 99.704 22.3567 99.1373 22.81C98.5868 23.2471 97.9473 23.5952 97.2188 23.8543C96.5064 24.0971 95.7373 24.2186 94.9116 24.2186C93.9726 24.2186 93.0983 24.0567 92.2888 23.7329C91.4792 23.3929 90.7749 22.9314 90.1759 22.3486C89.593 21.7495 89.1316 21.0533 88.7916 20.26C88.4516 19.4505 88.2816 18.5843 88.2816 17.6614ZM103.644 11.3229H106.704V13.7757C107.223 12.869 107.894 12.1971 108.72 11.76C109.562 11.3067 110.461 11.08 111.416 11.08V14.31C110.865 14.2938 110.315 14.3748 109.764 14.5529C109.214 14.7148 108.712 14.9576 108.259 15.2814C107.822 15.6052 107.457 16.0181 107.166 16.52C106.891 17.0057 106.737 17.5724 106.704 18.22V24H103.644V11.3229ZM125.92 24H122.86V22.3243C122.472 22.9233 121.954 23.3929 121.306 23.7329C120.659 24.0567 119.849 24.2186 118.878 24.2186C117.987 24.2186 117.188 24.0567 116.482 23.7329C115.776 23.3929 115.264 22.9314 114.946 22.3486C114.628 21.7495 114.468 21.0533 114.468 20.26V7.58286C114.468 6.78286 114.628 6.07286 114.946 5.45286C115.264 4.81857 115.776 4.33143 116.482 3.99143C117.188 3.65143 117.987 3.48143 118.878 3.48143C119.849 3.48143 120.659 3.65143 121.306 3.99143C121.954 4.33143 122.472 4.81857 122.86 5.45286V11.3229H125.92V14.9443H122.86V20.26C122.86 20.8552 123.022 21.3652 123.346 21.79C123.67 22.2019 124.092 22.4714 124.611 22.5986C125.13 22.712 125.725 22.7686 126.396 22.7686C127.166 22.7686 127.842 22.6319 128.424 22.3586C129.006 22.0714 129.523 21.6786 129.974 21.18C130.424 20.6657 130.747 20.0724 130.943 19.4009C131.138 18.7295 131.236 18.0433 131.236 17.3429C131.236 16.5648 131.109 15.8838 130.855 15.299C130.616 14.7143 130.259 14.2319 129.783 13.8514C129.323 13.4586 128.755 13.1533 128.079 12.9357C127.419 12.6914 126.755 12.5486 126.087 12.5071C125.42 12.4514 124.752 12.4571 124.083 12.5243C123.414 12.5752 122.775 12.6914 122.166 12.8729C122.691 13.1757 123.015 13.6452 123.136 14.2814H122.86V17.6614H125.92V24ZM135.467 11.3229H138.527V13.7757C139.046 12.869 139.717 12.1971 140.542 11.76C141.383 11.3067 142.282 11.08 143.237 11.08V14.31C142.687 14.2938 142.136 14.3748 141.585 14.5529C141.035 14.7148 140.533 14.9576 140.08 15.2814C139.643 15.6052 139.278 16.0181 138.987 16.52C138.711 17.0057 138.557 17.5724 138.527 18.22V24H135.467V11.3229ZM154.888 24.24C152.429 24.24 150.686 23.5295 149.658 22.1086C148.647 20.6876 148.142 18.6371 148.142 15.9571C148.142 13.2771 148.647 11.2267 149.658 9.80571C150.686 8.38476 152.429 7.67429 154.888 7.67429C157.347 7.67429 159.09 8.38476 160.118 9.80571C161.146 11.2267 161.66 13.2771 161.66 15.9571C161.66 18.6371 161.146 20.6876 160.118 22.1086C159.09 23.5295 157.347 24.24 154.888 24.24ZM154.888 21.3729C156.918 21.3729 158.458 20.7252 159.506 19.4297C160.554 18.1343 161.078 16.3114 161.078 13.9614C161.078 11.6114 160.554 9.78857 159.506 8.49286C158.458 7.19714 156.918 6.54929 154.888 6.54929C152.858 6.54929 151.318 7.19714 150.27 8.49286C149.222 9.78857 148.698 11.6114 148.698 13.9614C148.698 16.3114 149.222 18.1343 150.27 19.4297C151.318 20.7252 152.858 21.3729 154.888 21.3729Z" fill="#003049"/>
<path d="M3.08435 11.7966H0.0543518V8.54077H3.08435V11.7966Z" fill="#003049"/>
<path d="M3.08435 14.6857H0.0543518V11.43H3.08435V14.6857Z" fill="#003049"/>
<path d="M6.11435 14.6857H3.08435V11.43H6.11435V14.6857Z" fill="#003049"/>
<path d="M6.11435 8.54077H3.08435V5.28494H6.11435V8.54077Z" fill="#003049"/>
<path d="M9.14435 11.7966H6.11435V8.54077H9.14435V11.7966Z" fill="#003049"/>
<path d="M9.14435 14.6857H6.11435V11.43H9.14435V14.6857Z" fill="#003049"/>
<path d="M12.1743 14.6857H9.14435V11.43H12.1743V14.6857Z" fill="#003049"/>
<path d="M12.1743 8.54077H9.14435V5.28494H12.1743V8.54077Z" fill="#003049"/>
<path d="M15.2044 11.7966H12.1743V8.54077H15.2044V11.7966Z" fill="#003049"/>
<path d="M15.2044 14.6857H12.1743V11.43H15.2044V14.6857Z" fill="#003049"/>
<path d="M18.2344 14.6857H15.2044V11.43H18.2344V14.6857Z" fill="#003049"/>
<path d="M18.2344 8.54077H15.2044V5.28494H18.2344V8.54077Z" fill="#003049"/>
</g>
<defs>
<clipPath id="clip0">
<rect width="144" height="24" fill="white"/>
</clipPath>
</defs>
</svg>